<?xml version="1.0" standalone="no"?><!DOCTYPE svg PUBLIC "-//W3C//DTD SVG 1.1//EN" "http://www.w3.org/Graphics/SVG/1.1/DTD/svg11.dtd"><svg t="1623125586063" class="icon" viewBox="0 0 1081 1024" version="1.1" xmlns="http://www.w3.org/2000/svg" p-id="9295" xmlns:xlink="http://www.w3.org/1999/xlink" width="211.1328125" height="200"><defs><style type="text/css"></style></defs><path d="M123.392 782.336h289.28v49.664c9.728 9.728 24.064 9.728 33.792 0l57.856-58.368c7.68-7.168 7.68-23.552-2.048-31.232l-57.856-58.368c-9.728-9.728-24.064-9.728-33.792 0v49.664H123.392c-9.728 0-15.872 6.656-15.872 15.872v15.872c0 10.752 6.144 16.896 15.872 16.896z m614.912-247.296c74.24-45.568 123.904-126.976 123.904-219.648 0.512-141.824-115.2-257.536-257.024-257.536S348.16 173.568 348.16 315.392c0 93.184 50.176 174.592 123.904 219.648-92.672 28.672-173.056 87.04-229.888 165.376h138.24v-29.184l9.728-9.728c11.264-11.264 24.064-15.872 39.936-15.872 15.872 0 29.184 6.656 39.936 15.872l57.856 58.368c22.528 22.528 22.528 58.368 0 78.848l-59.392 56.32c-11.264 11.264-24.064 15.872-39.936 15.872-5.632 0-10.752-1.536-15.872-3.072v8.192c0 14.336-5.12 27.648-15.872 37.376l-51.2 51.712s-1.536 1.536-3.072 1.536h713.216c0-198.144-128.512-372.736-317.44-431.616z m-133.12-389.12c-9.728 0-15.872-6.656-15.872-15.872 0-9.728 6.656-15.872 15.872-15.872 9.728 0 15.872 6.656 15.872 15.872 0.512 9.728-6.144 15.872-15.872 15.872z m59.392 11.776c-8.192-3.072-12.8-13.312-9.728-20.992 3.072-8.192 13.312-13.312 20.992-9.728 67.072 24.064 116.224 83.968 128.512 154.624 5.12 27.648 3.072 54.784-3.072 82.432-2.56 6.144-9.216 10.752-15.36 10.752h-3.072c-8.192-1.536-14.336-11.776-11.264-19.456 5.12-22.528 6.656-46.592 1.536-69.12-10.24-59.392-51.712-109.056-108.544-128.512zM375.296 863.232l-51.2-51.712c-7.68-8.192-20.48-8.192-28.672-0.512l-0.512 0.512v43.52H40.96c-8.192 1.536-14.336 8.192-14.336 16.384v14.336c0 7.68 6.144 14.336 13.824 14.336h254.464v43.52c7.68 8.192 20.48 8.192 28.672 0.512l0.512-0.512 51.2-51.712c8.192-7.68 8.192-20.48 0-28.672z" p-id="9296" fill="#1296db"></path></svg>