<?xml version="1.0" standalone="no"?><!DOCTYPE svg PUBLIC "-//W3C//DTD SVG 1.1//EN" "http://www.w3.org/Graphics/SVG/1.1/DTD/svg11.dtd"><svg t="1623125674148" class="icon" viewBox="0 0 1024 1024" version="1.1" xmlns="http://www.w3.org/2000/svg" p-id="11035" xmlns:xlink="http://www.w3.org/1999/xlink" width="200" height="200"><defs><style type="text/css"></style></defs><path d="M767 427c0-14.2-14.2-28.3-28.3-28.3h-510c-14.2 0-28.3 14.2-28.3 28.3 0 14.2 14.2 28.3 28.3 28.3h510c14.1 0 28.3-14.1 28.3-28.3zM395.8 568.7H234.3c-17 0-31.2 11.3-31.2 28.3 0 14.2 14.2 28.3 31.2 28.3h161.5c17 0 31.2-14.2 31.2-28.3 0-17-14.2-28.3-31.2-28.3z m0 170H234.3c-17 0-31.2 11.3-31.2 28.3 0 14.2 14.2 28.3 31.2 28.3h161.5c17 0 31.2-14.2 31.2-28.3 0-17-14.2-28.3-31.2-28.3z m342.9-510h-510c-14.2 0-28.3 14.2-28.3 28.3 0 14.2 14.2 28.3 28.3 28.3h510c14.2 0 28.3-14.2 28.3-28.3 0-14.2-14.2-28.3-28.3-28.3z" fill="#1296db" p-id="11036"></path><path d="M483.7 965.3H87V58.7h793.3v425c0 17 11.3 28.3 28.3 28.3s28.3-11.3 28.3-28.3V30.3C937 16.2 922.8 2 908.7 2h-850C44.5 2 30.3 16.2 30.3 30.3v963.3c0 14.2 14.2 28.3 28.3 28.3h425c17 0 28.3-11.3 28.3-28.3s-11.2-28.3-28.2-28.3z" fill="#1296db" p-id="11037"></path><path d="M767 568.7c-124.7 0-226.7 102-226.7 226.7S642.3 1022 767 1022s226.7-102 226.7-226.7-102-226.6-226.7-226.6z m0 396.6c-93.5 0-170-76.5-170-170s76.5-170 170-170 170 76.5 170 170-76.5 170-170 170z" fill="#1296db" p-id="11038"></path><path d="M852 767h-56.7v-56.7c0-14.2-14.2-28.3-28.3-28.3s-28.3 14.2-28.3 28.3v85c0 14.2 14.2 28.3 28.3 28.3h85c14.2 0 28.3-14.2 28.3-28.3 0-14.1-14.1-28.3-28.3-28.3z" fill="#1296db" p-id="11039"></path></svg>